<svg xmlns="http://www.w3.org/2000/svg" viewBox="0 0 48 48" xmlns:xlink="http://www.w3.org/1999/xlink">
<defs>
<linearGradient xlink:href="#linearGradient8315" id="linearGradient13462" y1="-390.44" x1="230.876" y2="-386.959" gradientUnits="userSpaceOnUse" x2="235.257"/>
<linearGradient id="linearGradient6525" y1="11.113" x1="4.191" y2="56.052" gradientUnits="userSpaceOnUse" x2="47.32">
<stop offset="0" stop-color="#fff"/>
<stop offset="1" stop-color="#fff" stop-opacity=".34"/>
</linearGradient>
<linearGradient id="linearGradient8315">
<stop offset="0" stop-color="#fff"/>
<stop offset="1" stop-color="#fff" stop-opacity="0"/>
</linearGradient>
<linearGradient id="linearGradient8397">
<stop offset="0" stop-color="#fff"/>
<stop offset="1" stop-color="#fff" stop-opacity="0"/>
</linearGradient>
<linearGradient xlink:href="#linearGradient8397" id="linearGradient13464" y1="-388.475" x1="238.005" y2="-382.645" gradientUnits="userSpaceOnUse" x2="245.655"/>
<linearGradient id="linearGradient8381">
<stop offset="0" stop-color="#fff"/>
<stop offset="1" stop-color="#fff" stop-opacity="0"/>
</linearGradient>
<linearGradient gradientTransform="matrix(.87498 0 0 .92148 226.2382 -218.5702)" xlink:href="#linearGradient6525" id="linearGradient10815" y1="30.282" x1="8.547" y2="52.331" gradientUnits="userSpaceOnUse" x2="25.598"/>
<linearGradient xlink:href="#linearGradient8381" id="linearGradient13460" y1="-391.314" x1="246.74" y2="-385.352" gradientUnits="userSpaceOnUse" x2="252.698"/>
<linearGradient gradientTransform="translate(69 155)" xlink:href="#linearGradient8302" id="linearGradient13456" y1="-392.306" x1="228.503" y2="-379.269" gradientUnits="userSpaceOnUse" x2="266.364"/>
<linearGradient xlink:href="#linearGradient8331" id="linearGradient13458" y1="-393.407" x1="240.074" y2="-388.55" gradientUnits="userSpaceOnUse" x2="245.827"/>
<linearGradient id="linearGradient8331">
<stop offset="0" stop-color="#fff"/>
<stop offset="1" stop-color="#fff" stop-opacity="0"/>
</linearGradient>
<linearGradient id="linearGradient8302">
<stop offset="0" stop-color="#fff"/>
<stop offset="1" stop-color="#fff" stop-opacity="0"/>
</linearGradient>
<linearGradient id="linearGradient6470">
<stop offset="0" stop-color="#fff"/>
<stop offset="1" stop-color="#fff" stop-opacity="0"/>
</linearGradient>
<linearGradient xlink:href="#linearGradient6538" id="linearGradient13487" y1="-439.939" x1="285.941" y2="-436.443" gradientUnits="userSpaceOnUse" x2="289.391"/>
<linearGradient id="linearGradient6497">
<stop offset="0" stop-color="#fff"/>
<stop offset="1" stop-color="#fff" stop-opacity="0"/>
</linearGradient>
<linearGradient gradientTransform="translate(-35.00007 207.0001)" xlink:href="#linearGradient6527" id="linearGradient13489" y1="-437.105" x1="275.942" y2="-431.918" gradientUnits="userSpaceOnUse" x2="279.975"/>
<linearGradient xlink:href="#linearGradient6538" id="linearGradient13493" y1="-441.233" x1="284.802" y2="-436.831" gradientUnits="userSpaceOnUse" x2="288.9"/>
<linearGradient xlink:href="#linearGradient6549" id="linearGradient13491" y1="-439.484" x1="286.666" y2="-436.707" gradientUnits="userSpaceOnUse" x2="289.766"/>
<linearGradient xlink:href="#linearGradient6513" id="linearGradient13485" y1="-441.291" x1="286.512" y2="-436.145" gradientUnits="userSpaceOnUse" x2="289.854"/>
<linearGradient id="linearGradient6513">
<stop offset="0" stop-color="#fff"/>
<stop offset="1" stop-color="#fff" stop-opacity="0"/>
</linearGradient>
<linearGradient xlink:href="#linearGradient6497" id="linearGradient13483" y1="-439.753" x1="287.517" y2="-436.322" gradientUnits="userSpaceOnUse" x2="289.676"/>
<linearGradient id="linearGradient6538">
<stop offset="0" stop-color="#fff"/>
<stop offset="1" stop-color="#fff" stop-opacity="0"/>
</linearGradient>
<linearGradient id="linearGradient6549">
<stop offset="0" stop-color="#fff"/>
<stop offset="1" stop-color="#fff" stop-opacity="0"/>
</linearGradient>
<linearGradient gradientTransform="translate(-34.00007 207.0001)" xlink:href="#linearGradient6470" id="linearGradient13480" y1="-441.052" x1="271.022" y2="-431.97" gradientUnits="userSpaceOnUse" x2="285.029"/>
<linearGradient id="linearGradient6527">
<stop offset="0" stop-color="#fff"/>
<stop offset="1" stop-color="#fff" stop-opacity="0"/>
</linearGradient>
</defs>
<g transform="matrix(.99967 0 0 1 -286.9326 245.0251)">
<path fill="#555753" d="m311.5-243c-2.7724,0-5.1082,1.5737-6.4062,3.8125-.9444-.475-1.9652-.8125-3.0938-.8125-3.864,0-7,3.136-7,7 0,3.864 3.136,7 7,7 2.4197,0 4.4301-1.3193 5.6875-3.1875 1.1342,.6896 2.389,1.1875 3.8125,1.1875 .9131,0 1.7529-.232 2.5625-.5312 .5099,.8677 1.1791,1.5797 2,2.1562-.0072,.1304-.0625,.2428-.0625,.375 0,3.864 3.136,7 7,7 3.864,0 7-3.136 7-7 0-2.3697-1.259-4.3583-3.0625-5.625 .0072-.1304 .0625-.2428 .0625-.375 0-3.864-3.136-7-7-7-.6227,0-1.1752,.2222-1.75,.375-1.1945-2.5588-3.7413-4.375-6.75-4.375z"/>
<path fill="url(#linearGradient13456)" d="m311.5-242c-2.7805,0-5.1345,1.7618-6.0625,4.2188-.9854-.7094-2.1314-1.2188-3.4375-1.2188-3.312,0-6,2.688-6,6 0,3.312 2.688,6 6,6 2.4278,0 4.4932-1.4556 5.4375-3.5312 1.1208,.9176 2.5021,1.5312 4.0625,1.5312 1.0745,0 2.0443-.319 2.9375-.7812 .3984,.9998 1.1011,1.7863 1.9375,2.4375-.18,.5956-.375,1.1897-.375,1.8438 0,3.588 2.912,6.5 6.5,6.5 3.588,0 6.5-2.912 6.5-6.5 0-2.3608-1.3343-4.3302-3.2188-5.4688 .0626-.3472 .2188-.6661 .2188-1.0312 0-3.312-2.688-6-6-6-.853,0-1.6713,.1787-2.4062,.5-.8538-2.5939-3.2152-4.5-6.0938-4.5z"/>
<path fill="#888a85" d="m248.548-383.6666a6.7396,6.7396 0 1,1 -13.4792,0 6.7396,6.7396 0 1,1 13.4792,0z" transform="matrix(.96445 0 0 .96445 89.28852 144.5262)"/>
</g>
<g transform="matrix(.99967 0 0 1 -286.9326 245.0251)">
<path fill="#888a85" d="m250.1832-389.3014a6.2314,6.2314 0 1,1 -12.4628,0 6.2314,6.2314 0 1,1 12.4628,0z" transform="matrix(.88263 0 0 .88263 96.18078 108.1091)"/>
<path opacity=".494" fill="url(#linearGradient13458)" d="m250.1832-389.3014a6.2314,6.2314 0 1,1 -12.4628,0 6.2314,6.2314 0 1,1 12.4628,0z" transform="matrix(.88263 0 0 .88263 96.18078 108.1091)"/>
</g>
<g transform="matrix(.99967 0 0 1 -286.9326 245.0251)">
<path fill="#888a85" d="m257.2543-385.7879a6.0325,6.0325 0 1,1 -12.065,0 6.0325,6.0325 0 1,1 12.065,0z" transform="matrix(.91173 0 0 .91173 90.45407 120.2336)"/>
<path opacity=".494" fill="url(#linearGradient13460)" d="m257.2543-385.7879a6.0325,6.0325 0 1,1 -12.065,0 6.0325,6.0325 0 1,1 12.065,0z" transform="matrix(.91173 0 0 .91173 90.45407 120.2336)"/>
</g>
<g transform="matrix(.99967 0 0 1 -286.9326 245.0251)">
<path fill="#888a85" d="m237.8089-387.8872a4.3752,4.3752 0 1,1 -8.7505,0 4.3752,4.3752 0 1,1 8.7505,0z" transform="matrix(1.1428 0 0 1.1428 35.23229 210.277)"/>
<path opacity=".494" fill="url(#linearGradient13462)" d="m237.8089-387.8872a4.3752,4.3752 0 1,1 -8.7505,0 4.3752,4.3752 0 1,1 8.7505,0z" transform="matrix(1.1428 0 0 1.1428 35.23229 210.277)"/>
</g>
<g transform="matrix(.99967 0 0 1 -286.9326 245.0251)">
<path fill="#888a85" d="m248.548-383.6666a6.7396,6.7396 0 1,1 -13.4792,0 6.7396,6.7396 0 1,1 13.4792,0z" transform="matrix(1.03864 0 0 1.03864 59.84906 169.4899)"/>
<path opacity=".494" fill="url(#linearGradient13464)" d="m248.548-383.6666a6.7396,6.7396 0 1,1 -13.4792,0 6.7396,6.7396 0 1,1 13.4792,0z" transform="matrix(1.03864 0 0 1.03864 59.84907 169.4899)"/>
</g>
<g transform="matrix(.99967 0 0 1 -214.95593 253.02503)">
<path fill="#888a85" stroke="#555753" d="m246.4999-238.4999c-2.2708,0-4.1099,1.5503-4.7188,3.625-.6932-.3638-1.4445-.625-2.2812-.625-2.76,0-5,2.24-5,5 0,.5789 .1625,1.1077 .3438,1.625-1.3735,.7707-2.3438,2.189-2.3438,3.875 0,2.484 2.016,4.5 4.5,4.5 .1771,0 18.8229,0 19,0 2.484,0 4.5-2.016 4.5-4.5 0-1.686-.9703-3.1043-2.3438-3.875 .1812-.5173 .3438-1.0461 .3438-1.625 0-2.76-2.24-5-5-5-.8367,0-1.588,.2612-2.2812,.625-.6088-2.0747-2.4479-3.625-4.7188-3.625z" stroke-miterlimit="2"/>
<path fill="url(#linearGradient13480)" d="m246.4999-237.9999c-2.1897,0-3.7236,1.3358-4.3956,3.8435-.6685-.3436-1.5476-.8333-2.3544-.8333-2.7165,0-4.7551,1.9388-4.7551,4.5455 0,.5468 .2672,1.3334 .442,1.822-1.3244,.7279-2.4368,1.8905-2.4368,3.3725 0,2.3461 1.5462,4.2501 4.3393,4.2501 .1708,0 18.1506,0 18.3214,0 2.771,0 4.3393-1.904 4.3393-4.2501 0-1.5924-1.1124-2.6667-2.4368-3.3946 .1748-.4886 .4641-1.2532 .4641-1.7999 0-2.6067-2.1158-4.5676-4.7772-4.5676-.8069,0-1.6418,.4897-2.3103,.8334-.6489-2.4215-2.25-3.8214-4.4397-3.8214z"/>
<path fill="#888a85" d="m291.6875-437.5938a3.3125,3.3125 0 1,1 -6.625,0 3.3125,3.3125 0 1,1 6.625,0z" transform="matrix(1.0566 0 0 1.0566 -58.19825 228.8634)"/>
<path opacity=".478" fill="url(#linearGradient13483)" d="m291.6875-437.5938a3.3125,3.3125 0 1,1 -6.625,0 3.3125,3.3125 0 1,1 6.625,0z" transform="matrix(1.0566 0 0 1.0566 -58.19825 228.8634)"/>
<g fill="#888a85">
<path d="m237-231h20v9h-20z"/>
<path d="m291.6875-437.5938a3.3125,3.3125 0 1,1 -6.625,0 3.3125,3.3125 0 1,1 6.625,0z" transform="matrix(.90566 0 0 .90566 -24.16987 171.3114)"/>
<path d="m291.6875-437.5938a3.3125,3.3125 0 1,1 -6.625,0 3.3125,3.3125 0 1,1 6.625,0z" transform="matrix(1.0566 0 0 1.0566 -51.19818 231.8633)"/>
</g>
<path opacity=".478" fill="url(#linearGradient13485)" d="m291.6875-437.5938a3.3125,3.3125 0 1,1 -6.625,0 3.3125,3.3125 0 1,1 6.625,0z" transform="matrix(1.0566 0 0 1.0566 -51.19825 231.8634)"/>
<path fill="#888a85" d="m291.6875-437.5938a3.3125,3.3125 0 1,1 -6.625,0 3.3125,3.3125 0 1,1 6.625,0z" transform="matrix(1.0566 0 0 1.0566 -65.19825 231.8634)"/>
<path opacity=".478" fill="url(#linearGradient13487)" d="m291.6875-437.5938a3.3125,3.3125 0 1,1 -6.625,0 3.3125,3.3125 0 1,1 6.625,0z" transform="matrix(1.0566 0 0 1.0566 -65.19825 231.8634)"/>
<path fill="#888a85" d="m245.4687-233.9687c-3.5794,0-6.4688,2.9206-6.4688,6.5 0,2.3707 1.3494,4.3378 3.25,5.4688h6.4688c1.9006-1.131 3.25-3.1293 3.25-5.5 0-3.5794-2.9206-6.4688-6.5-6.4688z"/>
<path opacity=".478" fill="url(#linearGradient13489)" d="m245.4999-233.9999c-3.588,0-6.5,2.912-6.5,6.5 0,2.3764 1.3448,4.3663 3.25,5.5h6.5c1.9051-1.1337 3.25-3.1236 3.25-5.5 0-3.588-2.912-6.5-6.5-6.5z"/>
<path opacity=".478" fill="url(#linearGradient13491)" d="m291.6875-437.5938a3.3125,3.3125 0 1,1 -6.625,0 3.3125,3.3125 0 1,1 6.625,0z" transform="matrix(.90566 0 0 .90566 -24.16977 171.3113)"/>
<path fill="#555753" fill-rule="evenodd" d="m258.9563-230.3339c-.0015,2.6846-3.2693,3.7139-3.2693,3.7139 0,0 2.3487-1.6259 2.3368-3.705 0,0 .9324-.0089 .9324-.0089z"/>
<path fill="#888a85" d="m291.6875-437.5938a3.3125,3.3125 0 1,1 -6.625,0 3.3125,3.3125 0 1,1 6.625,0z" transform="matrix(1.20755 0 0 1.20755 -98.22652 302.4154)"/>
<path opacity=".478" fill="url(#linearGradient13493)" d="m291.6875-437.5938a3.3125,3.3125 0 1,1 -6.625,0 3.3125,3.3125 0 1,1 6.625,0z" transform="matrix(1.20755 0 0 1.20755 -98.22652 302.4154)"/>
</g>
<g transform="matrix(.99967 0 0 1 -229.96535 249.00903)">
<path fill="#888a85" stroke="#555753" d="m246.4999-238.4999c-2.2708,0-4.1099,1.5503-4.7188,3.625-.6932-.3638-1.4445-.625-2.2812-.625-2.76,0-5,2.24-5,5 0,.5789 .1625,1.1077 .3438,1.625-1.3735,.7707-2.3438,2.189-2.3438,3.875 0,2.484 2.016,4.5 4.5,4.5 .1771,0 18.8229,0 19,0 2.484,0 4.5-2.016 4.5-4.5 0-1.686-.9703-3.1043-2.3438-3.875 .1812-.5173 .3438-1.0461 .3438-1.625 0-2.76-2.24-5-5-5-.8367,0-1.588,.2612-2.2812,.625-.6088-2.0747-2.4479-3.625-4.7188-3.625z" stroke-miterlimit="2"/>
<path fill="url(#linearGradient13480)" d="m246.4999-237.9999c-2.1897,0-3.7236,1.3358-4.3956,3.8435-.6685-.3436-1.5476-.8333-2.3544-.8333-2.7165,0-4.7551,1.9388-4.7551,4.5455 0,.5468 .2672,1.3334 .442,1.822-1.3244,.7279-2.4368,1.8905-2.4368,3.3725 0,2.3461 1.5462,4.2501 4.3393,4.2501 .1708,0 18.1506,0 18.3214,0 2.771,0 4.3393-1.904 4.3393-4.2501 0-1.5924-1.1124-2.6667-2.4368-3.3946 .1748-.4886 .4641-1.2532 .4641-1.7999 0-2.6067-2.1158-4.5676-4.7772-4.5676-.8069,0-1.6418,.4897-2.3103,.8334-.6489-2.4215-2.25-3.8214-4.4397-3.8214z"/>
<path fill="#888a85" d="m291.6875-437.5938a3.3125,3.3125 0 1,1 -6.625,0 3.3125,3.3125 0 1,1 6.625,0z" transform="matrix(1.0566 0 0 1.0566 -58.19825 228.8634)"/>
<path opacity=".478" fill="url(#linearGradient13483)" d="m291.6875-437.5938a3.3125,3.3125 0 1,1 -6.625,0 3.3125,3.3125 0 1,1 6.625,0z" transform="matrix(1.0566 0 0 1.0566 -58.19825 228.8634)"/>
<g fill="#888a85">
<path d="m237-231h20v9h-20z"/>
<path d="m291.6875-437.5938a3.3125,3.3125 0 1,1 -6.625,0 3.3125,3.3125 0 1,1 6.625,0z" transform="matrix(.90566 0 0 .90566 -24.16987 171.3114)"/>
<path d="m291.6875-437.5938a3.3125,3.3125 0 1,1 -6.625,0 3.3125,3.3125 0 1,1 6.625,0z" transform="matrix(1.0566 0 0 1.0566 -51.19818 231.8633)"/>
</g>
<path opacity=".478" fill="url(#linearGradient13485)" d="m291.6875-437.5938a3.3125,3.3125 0 1,1 -6.625,0 3.3125,3.3125 0 1,1 6.625,0z" transform="matrix(1.0566 0 0 1.0566 -51.19825 231.8634)"/>
<path fill="#888a85" d="m291.6875-437.5938a3.3125,3.3125 0 1,1 -6.625,0 3.3125,3.3125 0 1,1 6.625,0z" transform="matrix(1.0566 0 0 1.0566 -65.19825 231.8634)"/>
<path opacity=".478" fill="url(#linearGradient13487)" d="m291.6875-437.5938a3.3125,3.3125 0 1,1 -6.625,0 3.3125,3.3125 0 1,1 6.625,0z" transform="matrix(1.0566 0 0 1.0566 -65.19825 231.8634)"/>
<path fill="#888a85" d="m245.4687-233.9687c-3.5794,0-6.4688,2.9206-6.4688,6.5 0,2.3707 1.3494,4.3378 3.25,5.4688h6.4688c1.9006-1.131 3.25-3.1293 3.25-5.5 0-3.5794-2.9206-6.4688-6.5-6.4688z"/>
<path opacity=".478" fill="url(#linearGradient13489)" d="m245.4999-233.9999c-3.588,0-6.5,2.912-6.5,6.5 0,2.3764 1.3448,4.3663 3.25,5.5h6.5c1.9051-1.1337 3.25-3.1236 3.25-5.5 0-3.588-2.912-6.5-6.5-6.5z"/>
<path opacity=".478" fill="url(#linearGradient13491)" d="m291.6875-437.5938a3.3125,3.3125 0 1,1 -6.625,0 3.3125,3.3125 0 1,1 6.625,0z" transform="matrix(.90566 0 0 .90566 -24.16977 171.3113)"/>
<path fill="#555753" fill-rule="evenodd" d="m258.9563-230.3339c-.0015,2.6846-3.2693,3.7139-3.2693,3.7139 0,0 2.3487-1.6259 2.3368-3.705 0,0 .9324-.0089 .9324-.0089z"/>
<path fill="#888a85" d="m291.6875-437.5938a3.3125,3.3125 0 1,1 -6.625,0 3.3125,3.3125 0 1,1 6.625,0z" transform="matrix(1.20755 0 0 1.20755 -98.22652 302.4154)"/>
<path opacity=".478" fill="url(#linearGradient13493)" d="m291.6875-437.5938a3.3125,3.3125 0 1,1 -6.625,0 3.3125,3.3125 0 1,1 6.625,0z" transform="matrix(1.20755 0 0 1.20755 -98.22652 302.4154)"/>
</g>
<g transform="translate(-220.9232 219.3848)">
<path fill="#c00" stroke="#9f0000" d="m257.2247-181.3929l-10.9452-20.5184c-.3145-.5699-.8807-.8866-1.5097-.8866-.629,0-1.1952,.38-1.5097,.9499l-10.6936,20.5184c-.2516,.5066-.2516,1.2032 .0629,1.7099 .3145,.5066 .8177,.7599 1.4468,.7599h21.6388c.629,0 1.1952-.3166 1.4468-.8233 .3145-.5066 .3145-1.1399 .0629-1.7099z"/>
</g>
<g stroke="#000">
<g fill="#fff" transform="matrix(.61143 0 0 .64574 9.2395 13.2283)">
<path stroke="none" d="m9.5,37.6c-.3,.5 0,.9 .5,.9h28.2c.5,0 .8-.4 .5-.9l-14.3-26.6c-.3-.5-.7-.5-.9,0l-14,26.6z"/>
</g>
<g transform="matrix(.57337 0 0 .57471 10.1545 15.1123)">
<path stroke="none" d="m23.9,36.5c-1.3,0-2.3-1-2.3-2.3 0-1.4 .9-2.3 2.3-2.3 1.4,0 2.2,.9 2.3,2.3 0,1.3-.9,2.3-2.3,2.3zm-1.4-5.9l-.6-11.5h4l-.6,11.5h-2.9 .1z"/>
</g>
</g>
<g transform="translate(-220.9232 219.3848)">
<path opacity=".5" fill="none" stroke="url(#linearGradient10815)" d="m255.8723-182.085l-9.9009-18.66c-.4217-.8039-.5728-1.0618-1.2087-1.0618-.5469,0-.8314,.3756-1.2235,1.1344l-9.6377,18.6449c-.5598,1.0468-.6191,1.3197-.3457,1.7804 .2734,.4607 .6219,.4356 1.9102,.4657h19.0937c1.1993,.015 1.469-.0776 1.6878-.5383 .2734-.4608 .1548-.8263-.3753-1.7654z"/>
</g>
</svg>
