<svg xmlns="http://www.w3.org/2000/svg" viewBox="0 0 48 48" xmlns:xlink="http://www.w3.org/1999/xlink">
<defs>
<linearGradient id="linearGradient6538">
<stop offset="0" stop-color="#fff"/>
<stop offset="1" stop-color="#fff" stop-opacity="0"/>
</linearGradient>
<linearGradient id="linearGradient6513">
<stop offset="0" stop-color="#fff"/>
<stop offset="1" stop-color="#fff" stop-opacity="0"/>
</linearGradient>
<linearGradient id="linearGradient6549">
<stop offset="0" stop-color="#fff"/>
<stop offset="1" stop-color="#fff" stop-opacity="0"/>
</linearGradient>
<linearGradient id="linearGradient6497">
<stop offset="0" stop-color="#fff"/>
<stop offset="1" stop-color="#fff" stop-opacity="0"/>
</linearGradient>
<linearGradient id="linearGradient4026">
<stop offset="0" stop-color="#fff9c6"/>
<stop offset=".542" stop-color="#fff28c"/>
<stop offset="1" stop-color="#ffea85"/>
</linearGradient>
<linearGradient xlink:href="#linearGradient4026" id="linearGradient3168" y1="-25.327" x1="-28.969" y2="-9.559" gradientUnits="userSpaceOnUse" x2="-37.197"/>
<linearGradient id="linearGradient6470">
<stop offset="0" stop-color="#fff"/>
<stop offset="1" stop-color="#fff" stop-opacity="0"/>
</linearGradient>
<linearGradient id="linearGradient6527">
<stop offset="0" stop-color="#fff"/>
<stop offset="1" stop-color="#fff" stop-opacity="0"/>
</linearGradient>
<linearGradient xlink:href="#linearGradient6538" id="linearGradient6724" y1="-441.233" x1="284.802" y2="-436.831" gradientUnits="userSpaceOnUse" x2="288.9"/>
<linearGradient xlink:href="#linearGradient6549" id="linearGradient6722" y1="-439.484" x1="286.666" y2="-436.707" gradientUnits="userSpaceOnUse" x2="289.766"/>
<linearGradient xlink:href="#linearGradient6538" id="linearGradient6718" y1="-439.939" x1="285.941" y2="-436.443" gradientUnits="userSpaceOnUse" x2="289.391"/>
<linearGradient xlink:href="#linearGradient6527" id="linearGradient6720" y1="-437.105" x1="275.942" y2="-431.918" gradientUnits="userSpaceOnUse" x2="279.975"/>
<linearGradient xlink:href="#linearGradient6497" id="linearGradient6714" y1="-439.753" x1="287.517" y2="-436.322" gradientUnits="userSpaceOnUse" x2="289.676"/>
<linearGradient xlink:href="#linearGradient6470" id="linearGradient6712" y1="-441.052" x1="271.022" y2="-431.97" gradientUnits="userSpaceOnUse" x2="285.029"/>
<linearGradient xlink:href="#linearGradient6513" id="linearGradient6716" y1="-441.291" x1="286.512" y2="-436.145" gradientUnits="userSpaceOnUse" x2="289.854"/>
<radialGradient cx="-33.519" cy="-22.113" gradientTransform="matrix(.48774 1.2924 -1.10267 .49724 -41.77393 32.41492)" id="radialGradient4020" r="9.5" gradientUnits="userSpaceOnUse">
<stop offset="0" stop-color="#fff7c2" stop-opacity=".638"/>
<stop offset=".594" stop-color="#fcaf3e" stop-opacity=".183"/>
<stop offset=".839" stop-color="#fcaf3e" stop-opacity=".505"/>
<stop offset="1" stop-color="#fcaf3e"/>
</radialGradient>
<radialGradient cx="24" cy="23.382" gradientTransform="matrix(1.0067 0 -0 1.00752 -.16082 .42698)" id="radialGradient4081" r="19.142" gradientUnits="userSpaceOnUse">
<stop offset="0" stop-color="#fff" stop-opacity="0"/>
<stop offset=".75" stop-color="#fff" stop-opacity="0"/>
<stop offset="1" stop-color="#fff"/>
</radialGradient>
</defs>
<g transform="translate(-263.99 459.9855)">
<path fill="#c4c5c2" stroke="#888a85" d="m280.5-445.5c-2.2708,0-4.1099,1.5503-4.7188,3.625-.6932-.3638-1.4445-.625-2.2812-.625-2.76,0-5,2.24-5,5 0,.5789 .1625,1.1077 .3438,1.625-1.3735,.7707-2.3438,2.189-2.3438,3.875 0,2.484 2.016,4.5 4.5,4.5 .1771,0 18.8229,0 19,0 2.484,0 4.5-2.016 4.5-4.5 0-1.686-.9703-3.1043-2.3438-3.875 .1812-.5173 .3438-1.0461 .3438-1.625 0-2.76-2.24-5-5-5-.8367,0-1.588,.2612-2.2812,.625-.6088-2.0747-2.4479-3.625-4.7188-3.625z" stroke-miterlimit="2"/>
<path fill="url(#linearGradient6712)" d="m280.5-445c-2.1897,0-3.7236,1.3358-4.3956,3.8435-.6685-.3436-1.5476-.8333-2.3544-.8333-2.7165,0-4.7551,1.9388-4.7551,4.5455 0,.5468 .2672,1.3334 .442,1.822-1.3244,.7279-2.4368,1.8905-2.4368,3.3725 0,2.346 1.5462,4.2501 4.3393,4.2501 .1708,0 18.1506,0 18.3214,0 2.771,0 4.3393-1.904 4.3393-4.2501 0-1.5924-1.1124-2.6667-2.4368-3.3946 .1748-.4886 .4641-1.2532 .4641-1.7999 0-2.6067-2.1158-4.5676-4.7772-4.5676-.8069,0-1.6418,.4897-2.3103,.8334-.6488-2.4215-2.25-3.8214-4.4397-3.8214z"/>
</g>
<g transform="translate(-263.99 459.9855)">
<path fill="#c4c5c2" d="m291.6875-437.5938a3.3125,3.3125 0 1,1 -6.625,0 3.3125,3.3125 0 1,1 6.625,0z" transform="matrix(1.0566 0 0 1.0566 -24.19818 21.86331)"/>
<path fill="url(#linearGradient6714)" d="m291.6875-437.5938a3.3125,3.3125 0 1,1 -6.625,0 3.3125,3.3125 0 1,1 6.625,0z" transform="matrix(1.0566 0 0 1.0566 -24.19818 21.86331)"/>
</g>
<g fill="#c4c5c2" transform="translate(-263.99 459.9855)">
<path d="m271-438h20v9h-20z"/>
<path d="m291.6875-437.5938a3.3125,3.3125 0 1,1 -6.625,0 3.3125,3.3125 0 1,1 6.625,0z" transform="matrix(.90566 0 0 .90566 9.83019 -35.68869)"/>
</g>
<g transform="translate(-263.99 459.9855)">
<path fill="#c4c5c2" d="m291.6875-437.5938a3.3125,3.3125 0 1,1 -6.625,0 3.3125,3.3125 0 1,1 6.625,0z" transform="matrix(1.0566 0 0 1.0566 -17.19811 24.86321)"/>
<path fill="url(#linearGradient6716)" d="m291.6875-437.5938a3.3125,3.3125 0 1,1 -6.625,0 3.3125,3.3125 0 1,1 6.625,0z" transform="matrix(1.0566 0 0 1.0566 -17.19818 24.86331)"/>
</g>
<g transform="translate(-263.99 459.9855)">
<path fill="#c4c5c2" d="m291.6875-437.5938a3.3125,3.3125 0 1,1 -6.625,0 3.3125,3.3125 0 1,1 6.625,0z" transform="matrix(1.0566 0 0 1.0566 -31.19818 24.86331)"/>
<path fill="url(#linearGradient6718)" d="m291.6875-437.5938a3.3125,3.3125 0 1,1 -6.625,0 3.3125,3.3125 0 1,1 6.625,0z" transform="matrix(1.0566 0 0 1.0566 -31.19818 24.86331)"/>
</g>
<g transform="translate(-264.99 459.9855)">
<path fill="#c4c5c2" d="m280.4688-440.9688c-3.5794,0-6.4688,2.9206-6.4688,6.5 0,2.3707 1.3494,4.3378 3.25,5.4688h6.4688c1.9006-1.131 3.25-3.1293 3.25-5.5 0-3.5794-2.9206-6.4688-6.5-6.4688z"/>
<path fill="url(#linearGradient6720)" d="m280.5-441c-3.588,0-6.5,2.912-6.5,6.5 0,2.3764 1.3449,4.3663 3.25,5.5h6.5c1.9051-1.1337 3.25-3.1236 3.25-5.5 0-3.588-2.912-6.5-6.5-6.5z"/>
</g>
<g transform="translate(-263.99 459.9855)">
<path fill="url(#linearGradient6722)" d="m291.6875-437.5938a3.3125,3.3125 0 1,1 -6.625,0 3.3125,3.3125 0 1,1 6.625,0z" transform="matrix(.90566 0 0 .90566 9.8303 -35.68884)"/>
<path fill="#888a85" fill-rule="evenodd" d="m292.9564-437.334c-.0015,2.6846-3.2693,3.714-3.2693,3.714 0,0 2.3487-1.626 2.3369-3.705 0,0 .9324-.0089 .9324-.0089z"/>
</g>
<g transform="matrix(1.14286 0 0 1.14286 -292.56139 526.98558)">
<path fill="#c4c5c2" d="m291.6875-437.5938a3.3125,3.3125 0 1,1 -6.625,0 3.3125,3.3125 0 1,1 6.625,0z" transform="matrix(1.0566 0 0 1.0566 -31.19818 24.86331)"/>
<path fill="url(#linearGradient6724)" d="m291.6875-437.5938a3.3125,3.3125 0 1,1 -6.625,0 3.3125,3.3125 0 1,1 6.625,0z" transform="matrix(1.0566 0 0 1.0566 -31.19818 24.86331)"/>
</g>
<g stroke-linecap="square">
<g opacity=".7">
<path fill="#fce94f" stroke="#fcaf3e" stroke-width=".737" d="m24,2.5l-2.375,6.6875c.774-.1234 1.5664-.1875 2.375-.1875 .8086,0 1.601,.0641 2.375,.1875l-2.375-6.6875zm-15.1875,6.2812l3.0312,6.4375c.9353-1.2902 2.0848-2.4397 3.375-3.375l-6.4062-3.0625zm30.4062,0l-6.4375,3.0625c1.2902,.9353 2.4397,2.0848 3.375,3.375l3.0625-6.4375zm-30.0312,12.8125l-6.6875,2.375 6.6875,2.375c-.1202-.7642-.1875-1.5459-.1875-2.3438 0-.8194 .0609-1.6224 .1875-2.4062zm29.625,.0312c.1234,.774 .1875,1.5664 .1875,2.375 0,.8086-.0641,1.601-.1875,2.375l6.6875-2.375-6.6875-2.375zm-26.9688,11.1562l-3.0312,6.4062 6.4062-3.0312c-1.2902-.9353-2.4397-2.0848-3.375-3.375zm24.3125,0c-.9265,1.278-2.0686,2.4135-3.3438,3.3438l6.4062,3.0625-3.0625-6.4062zm-14.5312,6.0312l2.375,6.6875 2.375-6.6875c-.774,.1234-1.5664,.1875-2.375,.1875-.8086,0-1.601-.0641-2.375-.1875z"/>
<path fill="none" stroke="url(#radialGradient4081)" stroke-width=".846" d="m24,5.25l-1.3438,3.8125c.4426-.0394 .8909-.0625 1.3438-.0625 .4528,0 .9011,.0231 1.3438,.0625l-1.3438-3.8125zm-13.2188,5.5l1.7188,3.625c.5715-.6809 1.224-1.3363 1.9062-1.9062l-3.625-1.7188zm26.4688,0l-3.625,1.7188c.6797,.5694 1.3368,1.2266 1.9062,1.9062l1.7188-3.625zm-28.1875,11.875l-3.7812,1.3438 3.7812,1.3438c-.0375-.4324-.0625-.8705-.0625-1.3125 0-.4636 .0213-.9221 .0625-1.375zm29.875,.0312c.0394,.4426 .0625,.8909 .0625,1.3438 0,.4528-.0231,.9011-.0625,1.3438l3.7812-1.3438-3.7812-1.3438zm-3.4062,10.9375c-.573,.6858-1.2213,1.3636-1.9062,1.9375l3.625,1.7188-1.7188-3.6562zm-23.0312,.0312l-1.7188,3.5938 3.5938-1.7188c-.6721-.5641-1.3109-1.2029-1.875-1.875zm10.1562,5.3125l1.3438,3.7812 1.3438-3.7812c-.4426,.0394-.8909,.0625-1.3438,.0625-.4528,0-.9011-.0231-1.3438-.0625z"/>
</g>
<path fill="#ffee54" stroke="#fcaf3e" stroke-width=".76" d="m-22.5-17.5a9.5,9.5 0 1,1 -19,0 9.5,9.5 0 1,1 19,0z" transform="matrix(.77806 -1.06129 1.06129 .77806 67.47952 3.64132)"/>
</g>
<path fill="url(#radialGradient4020)" d="m-22.5-17.5a9.5,9.5 0 1,1 -19,0 9.5,9.5 0 1,1 19,0z" transform="matrix(1.24426 -.16771 .21664 1.25184 67.61648 40.527)"/>
<path fill="none" stroke="url(#linearGradient3168)" stroke-linecap="square" stroke-width=".826" d="m-22.5-17.5a9.5,9.5 0 1,1 -19,0 9.5,9.5 0 1,1 19,0z" transform="matrix(.71579 -.97635 .97635 .71579 64.00044 5.26954)"/>
<g transform="translate(-248.99 467.9855)">
<path fill="#c4c5c2" stroke="#888a85" d="m280.5-445.5c-2.2708,0-4.1099,1.5503-4.7188,3.625-.6932-.3638-1.4445-.625-2.2812-.625-2.76,0-5,2.24-5,5 0,.5789 .1625,1.1077 .3438,1.625-1.3735,.7707-2.3438,2.189-2.3438,3.875 0,2.484 2.016,4.5 4.5,4.5 .1771,0 18.8229,0 19,0 2.484,0 4.5-2.016 4.5-4.5 0-1.686-.9703-3.1043-2.3438-3.875 .1812-.5173 .3438-1.0461 .3438-1.625 0-2.76-2.24-5-5-5-.8367,0-1.588,.2612-2.2812,.625-.6088-2.0747-2.4479-3.625-4.7188-3.625z" stroke-miterlimit="2"/>
<path fill="url(#linearGradient6712)" d="m280.5-445c-2.1897,0-3.7236,1.3358-4.3956,3.8435-.6685-.3436-1.5476-.8333-2.3544-.8333-2.7165,0-4.7551,1.9388-4.7551,4.5455 0,.5468 .2672,1.3334 .442,1.822-1.3244,.7279-2.4368,1.8905-2.4368,3.3725 0,2.346 1.5462,4.2501 4.3393,4.2501 .1708,0 18.1506,0 18.3214,0 2.771,0 4.3393-1.904 4.3393-4.2501 0-1.5924-1.1124-2.6667-2.4368-3.3946 .1748-.4886 .4641-1.2532 .4641-1.7999 0-2.6067-2.1158-4.5676-4.7772-4.5676-.8069,0-1.6418,.4897-2.3103,.8334-.6488-2.4215-2.25-3.8214-4.4397-3.8214z"/>
</g>
<g transform="translate(-248.99 467.9855)">
<path fill="#c4c5c2" d="m291.6875-437.5938a3.3125,3.3125 0 1,1 -6.625,0 3.3125,3.3125 0 1,1 6.625,0z" transform="matrix(1.0566 0 0 1.0566 -24.19818 21.86331)"/>
<path fill="url(#linearGradient6714)" d="m291.6875-437.5938a3.3125,3.3125 0 1,1 -6.625,0 3.3125,3.3125 0 1,1 6.625,0z" transform="matrix(1.0566 0 0 1.0566 -24.19818 21.86331)"/>
</g>
<g fill="#c4c5c2" transform="translate(-248.99 467.9855)">
<path d="m271-438h20v9h-20z"/>
<path d="m291.6875-437.5938a3.3125,3.3125 0 1,1 -6.625,0 3.3125,3.3125 0 1,1 6.625,0z" transform="matrix(.90566 0 0 .90566 9.83019 -35.68869)"/>
</g>
<g transform="translate(-248.99 467.9855)">
<path fill="#c4c5c2" d="m291.6875-437.5938a3.3125,3.3125 0 1,1 -6.625,0 3.3125,3.3125 0 1,1 6.625,0z" transform="matrix(1.0566 0 0 1.0566 -17.19811 24.86321)"/>
<path fill="url(#linearGradient6716)" d="m291.6875-437.5938a3.3125,3.3125 0 1,1 -6.625,0 3.3125,3.3125 0 1,1 6.625,0z" transform="matrix(1.0566 0 0 1.0566 -17.19818 24.86331)"/>
</g>
<g transform="translate(-248.99 467.9855)">
<path fill="#c4c5c2" d="m291.6875-437.5938a3.3125,3.3125 0 1,1 -6.625,0 3.3125,3.3125 0 1,1 6.625,0z" transform="matrix(1.0566 0 0 1.0566 -31.19818 24.86331)"/>
<path fill="url(#linearGradient6718)" d="m291.6875-437.5938a3.3125,3.3125 0 1,1 -6.625,0 3.3125,3.3125 0 1,1 6.625,0z" transform="matrix(1.0566 0 0 1.0566 -31.19818 24.86331)"/>
</g>
<g transform="translate(-249.99 467.9855)">
<path fill="#c4c5c2" d="m280.4688-440.9688c-3.5794,0-6.4688,2.9206-6.4688,6.5 0,2.3707 1.3494,4.3378 3.25,5.4688h6.4688c1.9006-1.131 3.25-3.1293 3.25-5.5 0-3.5794-2.9206-6.4688-6.5-6.4688z"/>
<path fill="url(#linearGradient6720)" d="m280.5-441c-3.588,0-6.5,2.912-6.5,6.5 0,2.3764 1.3449,4.3663 3.25,5.5h6.5c1.9051-1.1337 3.25-3.1236 3.25-5.5 0-3.588-2.912-6.5-6.5-6.5z"/>
</g>
<g transform="translate(-248.99 467.9855)">
<path fill="url(#linearGradient6722)" d="m291.6875-437.5938a3.3125,3.3125 0 1,1 -6.625,0 3.3125,3.3125 0 1,1 6.625,0z" transform="matrix(.90566 0 0 .90566 9.8303 -35.68884)"/>
<path fill="#888a85" fill-rule="evenodd" d="m292.9564-437.334c-.0015,2.6846-3.2693,3.714-3.2693,3.714 0,0 2.3487-1.626 2.3369-3.705 0,0 .9324-.0089 .9324-.0089z"/>
</g>
<g transform="matrix(1.14286 0 0 1.14286 -277.56139 534.98558)">
<path fill="#c4c5c2" d="m291.6875-437.5938a3.3125,3.3125 0 1,1 -6.625,0 3.3125,3.3125 0 1,1 6.625,0z" transform="matrix(1.0566 0 0 1.0566 -31.19818 24.86331)"/>
<path fill="url(#linearGradient6724)" d="m291.6875-437.5938a3.3125,3.3125 0 1,1 -6.625,0 3.3125,3.3125 0 1,1 6.625,0z" transform="matrix(1.0566 0 0 1.0566 -31.19818 24.86331)"/>
</g>
</svg>
