<svg xmlns="http://www.w3.org/2000/svg" viewBox="0 0 48 48" xmlns:xlink="http://www.w3.org/1999/xlink">
<defs>
<linearGradient xlink:href="#linearGradient8397" id="linearGradient10640" y1="-388.475" x1="238.005" y2="-382.645" gradientUnits="userSpaceOnUse" x2="245.655"/>
<linearGradient gradientTransform="translate(69.00259 102)" xlink:href="#linearGradient8302" id="linearGradient10632" y1="-392.306" x1="228.503" y2="-375.38" gradientUnits="userSpaceOnUse" x2="278.915"/>
<linearGradient id="linearGradient8397">
<stop offset="0" stop-color="#fff"/>
<stop offset="1" stop-color="#fff" stop-opacity="0"/>
</linearGradient>
<linearGradient id="linearGradient7834">
<stop offset="0" stop-color="#fff"/>
<stop offset="1" stop-color="#fff" stop-opacity="0"/>
</linearGradient>
<linearGradient xlink:href="#linearGradient7834" id="linearGradient10642" y1="-100.534" x1="-156.29" y2="-96.545" gradientUnits="userSpaceOnUse" x2="-153.098"/>
<linearGradient id="linearGradient8315">
<stop offset="0" stop-color="#fff"/>
<stop offset="1" stop-color="#fff" stop-opacity="0"/>
</linearGradient>
<linearGradient id="linearGradient8302">
<stop offset="0" stop-color="#fff"/>
<stop offset="1" stop-color="#fff" stop-opacity="0"/>
</linearGradient>
<linearGradient xlink:href="#linearGradient8315" id="linearGradient10638" y1="-390.44" x1="230.876" y2="-386.959" gradientUnits="userSpaceOnUse" x2="235.257"/>
<linearGradient xlink:href="#linearGradient8331" id="linearGradient10634" y1="-393.407" x1="240.074" y2="-388.55" gradientUnits="userSpaceOnUse" x2="245.827"/>
<linearGradient xlink:href="#linearGradient8381" id="linearGradient10636" y1="-391.314" x1="246.74" y2="-385.352" gradientUnits="userSpaceOnUse" x2="252.698"/>
<linearGradient id="linearGradient8381">
<stop offset="0" stop-color="#fff"/>
<stop offset="1" stop-color="#fff" stop-opacity="0"/>
</linearGradient>
<linearGradient id="linearGradient8331">
<stop offset="0" stop-color="#fff"/>
<stop offset="1" stop-color="#fff" stop-opacity="0"/>
</linearGradient>
<linearGradient id="linearGradient6470">
<stop offset="0" stop-color="#fff"/>
<stop offset="1" stop-color="#fff" stop-opacity="0"/>
</linearGradient>
<linearGradient xlink:href="#linearGradient6538" id="linearGradient10664" y1="-439.939" x1="285.941" y2="-436.443" gradientUnits="userSpaceOnUse" x2="289.391"/>
<linearGradient id="linearGradient6497">
<stop offset="0" stop-color="#fff"/>
<stop offset="1" stop-color="#fff" stop-opacity="0"/>
</linearGradient>
<linearGradient xlink:href="#linearGradient6527" id="linearGradient10666" y1="-437.105" x1="275.942" y2="-431.918" gradientUnits="userSpaceOnUse" x2="279.975"/>
<linearGradient xlink:href="#linearGradient6538" id="linearGradient10670" y1="-441.233" x1="284.802" y2="-436.831" gradientUnits="userSpaceOnUse" x2="288.9"/>
<linearGradient xlink:href="#linearGradient6549" id="linearGradient10668" y1="-439.484" x1="286.666" y2="-436.707" gradientUnits="userSpaceOnUse" x2="289.766"/>
<linearGradient xlink:href="#linearGradient6513" id="linearGradient10662" y1="-441.291" x1="286.512" y2="-436.145" gradientUnits="userSpaceOnUse" x2="289.854"/>
<linearGradient id="linearGradient6513">
<stop offset="0" stop-color="#fff"/>
<stop offset="1" stop-color="#fff" stop-opacity="0"/>
</linearGradient>
<linearGradient xlink:href="#linearGradient6497" id="linearGradient10660" y1="-439.753" x1="287.517" y2="-436.322" gradientUnits="userSpaceOnUse" x2="289.676"/>
<linearGradient id="linearGradient6538">
<stop offset="0" stop-color="#fff"/>
<stop offset="1" stop-color="#fff" stop-opacity="0"/>
</linearGradient>
<linearGradient id="linearGradient6549">
<stop offset="0" stop-color="#fff"/>
<stop offset="1" stop-color="#fff" stop-opacity="0"/>
</linearGradient>
<linearGradient xlink:href="#linearGradient6470" id="linearGradient10658" y1="-441.052" x1="271.022" y2="-431.97" gradientUnits="userSpaceOnUse" x2="285.029"/>
<linearGradient id="linearGradient6527">
<stop offset="0" stop-color="#fff"/>
<stop offset="1" stop-color="#fff" stop-opacity="0"/>
</linearGradient>
</defs>
<g transform="translate(-287 298)">
<path fill="#888a85" d="m311.5026-296c-2.7724,0-5.1082,1.5737-6.4062,3.8125-.9444-.475-1.9652-.8125-3.0938-.8125-3.864,0-7,3.136-7,7 0,3.864 3.136,7 7,7 2.4197,0 4.4301-1.3193 5.6875-3.1875 1.1342,.6896 2.389,1.1875 3.8125,1.1875 .9131,0 1.7529-.232 2.5625-.5312 .5099,.8677 1.1791,1.5797 2,2.1562-.0072,.1304-.0625,.2428-.0625,.375 0,3.864 3.136,7 7,7 3.864,0 7-3.136 7-7 0-2.3697-1.259-4.3583-3.0625-5.625 .0072-.1304 .0625-.2428 .0625-.375 0-3.864-3.136-7-7-7-.6227,0-1.1752,.2222-1.75,.375-1.1945-2.5588-3.7413-4.375-6.75-4.375z"/>
<path fill="url(#linearGradient10632)" d="m311.5026-295c-2.7805,0-5.1345,1.7618-6.0625,4.2188-.9854-.7094-2.1314-1.2188-3.4375-1.2188-3.312,0-6,2.688-6,6 0,3.312 2.688,6 6,6 2.4278,0 4.4932-1.4556 5.4375-3.5312 1.1208,.9176 2.5021,1.5312 4.0625,1.5312 1.0745,0 2.0443-.319 2.9375-.7812 .3984,.9998 1.1011,1.7863 1.9375,2.4375-.18,.5956-.375,1.1896-.375,1.8438 0,3.588 2.912,6.5 6.5,6.5 3.588,0 6.5-2.912 6.5-6.5 0-2.3608-1.3343-4.3302-3.2188-5.4688 .0626-.3472 .2188-.6661 .2188-1.0312 0-3.312-2.688-6-6-6-.853,0-1.6713,.1787-2.4062,.5-.8538-2.5939-3.2152-4.5-6.0938-4.5z"/>
<path fill="#c4c5c2" d="m248.548-383.6666a6.7396,6.7396 0 1,1 -13.4792,0 6.7396,6.7396 0 1,1 13.4792,0z" transform="matrix(.96445 0 0 .96445 89.29111 91.52621)"/>
</g>
<g transform="translate(-217.99741 400)">
<path fill="#c4c5c2" d="m250.1832-389.3014a6.2314,6.2314 0 1,1 -12.4628,0 6.2314,6.2314 0 1,1 12.4628,0z" transform="matrix(.88263 0 0 .88263 27.18078 -46.89094)"/>
<path fill="url(#linearGradient10634)" d="m250.1832-389.3014a6.2314,6.2314 0 1,1 -12.4628,0 6.2314,6.2314 0 1,1 12.4628,0z" transform="matrix(.88263 0 0 .88263 27.18078 -46.89094)"/>
</g>
<g transform="translate(-217.99741 400)">
<path fill="#c4c5c2" d="m257.2543-385.7879a6.0325,6.0325 0 1,1 -12.065,0 6.0325,6.0325 0 1,1 12.065,0z" transform="matrix(.91173 0 0 .91173 21.45407 -34.76637)"/>
<path fill="url(#linearGradient10636)" d="m257.2543-385.7879a6.0325,6.0325 0 1,1 -12.065,0 6.0325,6.0325 0 1,1 12.065,0z" transform="matrix(.91173 0 0 .91173 21.45407 -34.76637)"/>
</g>
<g transform="translate(-217.99741 400)">
<path fill="#c4c5c2" d="m237.8089-387.8872a4.3752,4.3752 0 1,1 -8.7505,0 4.3752,4.3752 0 1,1 8.7505,0z" transform="matrix(1.1428 0 0 1.1428 -33.76771 55.27704)"/>
<path fill="url(#linearGradient10638)" d="m237.8089-387.8872a4.3752,4.3752 0 1,1 -8.7505,0 4.3752,4.3752 0 1,1 8.7505,0z" transform="matrix(1.1428 0 0 1.1428 -33.76771 55.27704)"/>
</g>
<g transform="translate(-217.99741 400)">
<path fill="#c4c5c2" d="m248.548-383.6666a6.7396,6.7396 0 1,1 -13.4792,0 6.7396,6.7396 0 1,1 13.4792,0z" transform="matrix(1.03864 0 0 1.03864 -9.15094 14.48994)"/>
<path fill="url(#linearGradient10640)" d="m248.548-383.6666a6.7396,6.7396 0 1,1 -13.4792,0 6.7396,6.7396 0 1,1 13.4792,0z" transform="matrix(1.03864 0 0 1.03864 -9.15093 14.48993)"/>
</g>
<g transform="matrix(.93503 0 0 .93503 159.828 110.3838)">
<path fill="#c4c5c2" d="m-151.9375-96.9375a3.125,3.125 0 1,1 -6.25,0 3.125,3.125 0 1,1 6.25,0z" transform="matrix(1.73773 0 0 1.73773 110.8322 70.07649)"/>
<path fill="url(#linearGradient10642)" d="m-151.9375-96.9375a3.125,3.125 0 1,1 -6.25,0 3.125,3.125 0 1,1 6.25,0z" transform="matrix(1.73773 0 0 1.73773 110.8948 70.01402)"/>
</g>
<g transform="translate(-248.99741 460)">
<path fill="#c4c5c2" stroke="#888a85" d="m280.5-445.5c-2.2708,0-4.1099,1.5503-4.7188,3.625-.6932-.3638-1.4445-.625-2.2812-.625-2.76,0-5,2.24-5,5 0,.5789 .1625,1.1077 .3438,1.625-1.3735,.7707-2.3438,2.189-2.3438,3.875 0,2.484 2.016,4.5 4.5,4.5 .1771,0 18.8229,0 19,0 2.484,0 4.5-2.016 4.5-4.5 0-1.686-.9703-3.1043-2.3438-3.875 .1812-.5173 .3438-1.0461 .3438-1.625 0-2.76-2.24-5-5-5-.8367,0-1.588,.2612-2.2812,.625-.6088-2.0747-2.4479-3.625-4.7188-3.625z" stroke-miterlimit="2"/>
<path fill="url(#linearGradient10658)" d="m280.5-445c-2.1897,0-3.7236,1.3358-4.3956,3.8435-.6685-.3436-1.5476-.8333-2.3544-.8333-2.7165,0-4.7551,1.9388-4.7551,4.5455 0,.5468 .2672,1.3334 .442,1.822-1.3244,.7279-2.4368,1.8905-2.4368,3.3725 0,2.346 1.5462,4.2501 4.3393,4.2501 .1708,0 18.1506,0 18.3214,0 2.771,0 4.3393-1.904 4.3393-4.2501 0-1.5924-1.1124-2.6667-2.4368-3.3946 .1748-.4886 .4641-1.2532 .4641-1.7999 0-2.6067-2.1158-4.5676-4.7772-4.5676-.8069,0-1.6418,.4897-2.3103,.8334-.6488-2.4215-2.25-3.8214-4.4397-3.8214z"/>
</g>
<g transform="translate(-248.99741 460)">
<path fill="#c4c5c2" d="m291.6875-437.5938a3.3125,3.3125 0 1,1 -6.625,0 3.3125,3.3125 0 1,1 6.625,0z" transform="matrix(1.0566 0 0 1.0566 -24.19818 21.86331)"/>
<path fill="url(#linearGradient10660)" d="m291.6875-437.5938a3.3125,3.3125 0 1,1 -6.625,0 3.3125,3.3125 0 1,1 6.625,0z" transform="matrix(1.0566 0 0 1.0566 -24.19818 21.86331)"/>
</g>
<g fill="#c4c5c2" transform="translate(-248.99741 460)">
<path d="m271-438h20v9h-20z"/>
<path d="m291.6875-437.5938a3.3125,3.3125 0 1,1 -6.625,0 3.3125,3.3125 0 1,1 6.625,0z" transform="matrix(.90566 0 0 .90566 9.83019 -35.68869)"/>
</g>
<g transform="translate(-248.99741 460)">
<path fill="#c4c5c2" d="m291.6875-437.5938a3.3125,3.3125 0 1,1 -6.625,0 3.3125,3.3125 0 1,1 6.625,0z" transform="matrix(1.0566 0 0 1.0566 -17.19811 24.86321)"/>
<path fill="url(#linearGradient10662)" d="m291.6875-437.5938a3.3125,3.3125 0 1,1 -6.625,0 3.3125,3.3125 0 1,1 6.625,0z" transform="matrix(1.0566 0 0 1.0566 -17.19818 24.86331)"/>
</g>
<g transform="translate(-248.99741 460)">
<path fill="#c4c5c2" d="m291.6875-437.5938a3.3125,3.3125 0 1,1 -6.625,0 3.3125,3.3125 0 1,1 6.625,0z" transform="matrix(1.0566 0 0 1.0566 -31.19818 24.86331)"/>
<path fill="url(#linearGradient10664)" d="m291.6875-437.5938a3.3125,3.3125 0 1,1 -6.625,0 3.3125,3.3125 0 1,1 6.625,0z" transform="matrix(1.0566 0 0 1.0566 -31.19818 24.86331)"/>
</g>
<g transform="translate(-249.99741 460)">
<path fill="#c4c5c2" d="m280.4688-440.9688c-3.5794,0-6.4688,2.9206-6.4688,6.5 0,2.3707 1.3494,4.3378 3.25,5.4688h6.4688c1.9006-1.131 3.25-3.1293 3.25-5.5 0-3.5794-2.9206-6.4688-6.5-6.4688z"/>
<path fill="url(#linearGradient10666)" d="m280.5-441c-3.588,0-6.5,2.912-6.5,6.5 0,2.3764 1.3449,4.3663 3.25,5.5h6.5c1.9051-1.1337 3.25-3.1236 3.25-5.5 0-3.588-2.912-6.5-6.5-6.5z"/>
</g>
<g transform="translate(-248.99741 460)">
<path fill="url(#linearGradient10668)" d="m291.6875-437.5938a3.3125,3.3125 0 1,1 -6.625,0 3.3125,3.3125 0 1,1 6.625,0z" transform="matrix(.90566 0 0 .90566 9.8303 -35.68884)"/>
<path fill="#888a85" fill-rule="evenodd" d="m292.9564-437.334c-.0015,2.6846-3.2693,3.714-3.2693,3.714 0,0 2.3487-1.626 2.3369-3.705 0,0 .9324-.0089 .9324-.0089z"/>
</g>
<g transform="matrix(1.14286 0 0 1.14286 -277.5688 527.00008)">
<path fill="#c4c5c2" d="m291.6875-437.5938a3.3125,3.3125 0 1,1 -6.625,0 3.3125,3.3125 0 1,1 6.625,0z" transform="matrix(1.0566 0 0 1.0566 -31.19818 24.86331)"/>
<path fill="url(#linearGradient10670)" d="m291.6875-437.5938a3.3125,3.3125 0 1,1 -6.625,0 3.3125,3.3125 0 1,1 6.625,0z" transform="matrix(1.0566 0 0 1.0566 -31.19818 24.86331)"/>
</g>
<g transform="translate(-264 456)">
<path fill="#c4c5c2" stroke="#888a85" d="m280.5-445.5c-2.2708,0-4.1099,1.5503-4.7188,3.625-.6932-.3638-1.4445-.625-2.2812-.625-2.76,0-5,2.24-5,5 0,.5789 .1625,1.1077 .3438,1.625-1.3735,.7707-2.3438,2.189-2.3438,3.875 0,2.484 2.016,4.5 4.5,4.5 .1771,0 18.8229,0 19,0 2.484,0 4.5-2.016 4.5-4.5 0-1.686-.9703-3.1043-2.3438-3.875 .1812-.5173 .3438-1.0461 .3438-1.625 0-2.76-2.24-5-5-5-.8367,0-1.588,.2612-2.2812,.625-.6088-2.0747-2.4479-3.625-4.7188-3.625z" stroke-miterlimit="2"/>
<path fill="url(#linearGradient10658)" d="m280.5-445c-2.1897,0-3.7236,1.3358-4.3956,3.8435-.6685-.3436-1.5476-.8333-2.3544-.8333-2.7165,0-4.7551,1.9388-4.7551,4.5455 0,.5468 .2672,1.3334 .442,1.822-1.3244,.7279-2.4368,1.8905-2.4368,3.3725 0,2.346 1.5462,4.2501 4.3393,4.2501 .1708,0 18.1506,0 18.3214,0 2.771,0 4.3393-1.904 4.3393-4.2501 0-1.5924-1.1124-2.6667-2.4368-3.3946 .1748-.4886 .4641-1.2532 .4641-1.7999 0-2.6067-2.1158-4.5676-4.7772-4.5676-.8069,0-1.6418,.4897-2.3103,.8334-.6488-2.4215-2.25-3.8214-4.4397-3.8214z"/>
</g>
<g transform="translate(-264 456)">
<path fill="#c4c5c2" d="m291.6875-437.5938a3.3125,3.3125 0 1,1 -6.625,0 3.3125,3.3125 0 1,1 6.625,0z" transform="matrix(1.0566 0 0 1.0566 -24.19818 21.86331)"/>
<path fill="url(#linearGradient10660)" d="m291.6875-437.5938a3.3125,3.3125 0 1,1 -6.625,0 3.3125,3.3125 0 1,1 6.625,0z" transform="matrix(1.0566 0 0 1.0566 -24.19818 21.86331)"/>
</g>
<g fill="#c4c5c2" transform="translate(-264 456)">
<path d="m271-438h20v9h-20z"/>
<path d="m291.6875-437.5938a3.3125,3.3125 0 1,1 -6.625,0 3.3125,3.3125 0 1,1 6.625,0z" transform="matrix(.90566 0 0 .90566 9.83019 -35.68869)"/>
</g>
<g transform="translate(-264 456)">
<path fill="#c4c5c2" d="m291.6875-437.5938a3.3125,3.3125 0 1,1 -6.625,0 3.3125,3.3125 0 1,1 6.625,0z" transform="matrix(1.0566 0 0 1.0566 -17.19811 24.86321)"/>
<path fill="url(#linearGradient10662)" d="m291.6875-437.5938a3.3125,3.3125 0 1,1 -6.625,0 3.3125,3.3125 0 1,1 6.625,0z" transform="matrix(1.0566 0 0 1.0566 -17.19818 24.86331)"/>
</g>
<g transform="translate(-264 456)">
<path fill="#c4c5c2" d="m291.6875-437.5938a3.3125,3.3125 0 1,1 -6.625,0 3.3125,3.3125 0 1,1 6.625,0z" transform="matrix(1.0566 0 0 1.0566 -31.19818 24.86331)"/>
<path fill="url(#linearGradient10664)" d="m291.6875-437.5938a3.3125,3.3125 0 1,1 -6.625,0 3.3125,3.3125 0 1,1 6.625,0z" transform="matrix(1.0566 0 0 1.0566 -31.19818 24.86331)"/>
</g>
<g transform="translate(-265 456)">
<path fill="#c4c5c2" d="m280.4688-440.9688c-3.5794,0-6.4688,2.9206-6.4688,6.5 0,2.3707 1.3494,4.3378 3.25,5.4688h6.4688c1.9006-1.131 3.25-3.1293 3.25-5.5 0-3.5794-2.9206-6.4688-6.5-6.4688z"/>
<path fill="url(#linearGradient10666)" d="m280.5-441c-3.588,0-6.5,2.912-6.5,6.5 0,2.3764 1.3449,4.3663 3.25,5.5h6.5c1.9051-1.1337 3.25-3.1236 3.25-5.5 0-3.588-2.912-6.5-6.5-6.5z"/>
</g>
<g transform="translate(-264 456)">
<path fill="url(#linearGradient10668)" d="m291.6875-437.5938a3.3125,3.3125 0 1,1 -6.625,0 3.3125,3.3125 0 1,1 6.625,0z" transform="matrix(.90566 0 0 .90566 9.8303 -35.68884)"/>
<path fill="#888a85" fill-rule="evenodd" d="m292.9564-437.334c-.0015,2.6846-3.2693,3.714-3.2693,3.714 0,0 2.3487-1.626 2.3369-3.705 0,0 .9324-.0089 .9324-.0089z"/>
</g>
<g transform="matrix(1.14286 0 0 1.14286 -292.57139 523.00008)">
<path fill="#c4c5c2" d="m291.6875-437.5938a3.3125,3.3125 0 1,1 -6.625,0 3.3125,3.3125 0 1,1 6.625,0z" transform="matrix(1.0566 0 0 1.0566 -31.19818 24.86331)"/>
<path fill="url(#linearGradient10670)" d="m291.6875-437.5938a3.3125,3.3125 0 1,1 -6.625,0 3.3125,3.3125 0 1,1 6.625,0z" transform="matrix(1.0566 0 0 1.0566 -31.19818 24.86331)"/>
</g>
</svg>
