<svg xmlns="http://www.w3.org/2000/svg" viewBox="0 0 48 48" xmlns:xlink="http://www.w3.org/1999/xlink">
<defs>
<radialGradient cx="97.468" cy="-405.912" gradientTransform="matrix(.02129 0 0 .02759 323.3674 -435.104)" id="radialGradient7778" r="358.446" gradientUnits="userSpaceOnUse">
<stop offset="0" stop-color="#787974"/>
<stop offset="1" stop-color="#787974" stop-opacity="0"/>
</radialGradient>
</defs>
<g transform="matrix(.9987 0 0 .9987 -342.5411 469.4117)">
<path fill="#eaece8" d="m-46.5,.25a9.75,9.75 0 1,1 -19.5,0 9.75,9.75 0 1,1 19.5,0z" transform="matrix(1.38649 0 0 1.38649 444.99 -446.4716)"/>
</g>
<g transform="matrix(.9987 0 0 .9987 -305.46444 467.78882)">
<g fill-rule="evenodd">
<g fill="#787974">
<path opacity=".106" d="m323.8461-456.078c.0486,.1756-.1259,.394-.2793,.5985-.2014,.2686-.3104,.4477-.0798,.6784 .1433,.1433 .5789,.0158 .7183-.0399 .3214-.1286 .6736-.2295 .9976-.3591 .2457-.0983 .4292-.1372 .6784-.1995 .2867-.0717 .5715,.0571 .6784,.1995 .0681,.0908-.4618,.4903-.5188,.5187-.242,.121-.4729,.218-.7183,.2793-.302,.0755-.5715,.1781-.8779,.2394-.3077,.0615-.5236,.1546-.7981,.3192-.3401,.204-.6261,.5063-.9178,.7981-.2726,.2726-.3671,.5669-.2793,.9178 .0844,.3375 .21,.457 .5188,.5188 .3433,.0687 .5106-.0955 .6784-.3192 .2182-.291 .3017-.6608 .5587-.9178 .2149-.2149 .3622-.4213 .5986-.5986 .2396-.1797 .4209-.2739 .7183-.1995 .2473,.0618 .4487,.3052 .7183,.3591 .2273,.0455 .5616-.2608 .7582-.3591 .0429-.0215 .0798-.0532 .1197-.0798 .2073-.1382 .5504-.0798 .7981-.0798 .269,0 .4962,.1284 .7183,.2394 .2688,.1344 .5007,.1261 .7582,.3192 .2726,.2044 .4189,.359 .5587,.6385 .132,.264 .1903,.4298 .399,.6385 .2207,.2207 .5603,.3608 .7981,.5985 .1429,.1429 .2326,.5314 .2793,.7183 .0733,.2931 .1394,.5991 0,.8779-.1509,.3018-.3319,.584-.4789,.8779-.1446,.2892-.5492,.5316-.7981,.7183-.343,.2573-.7512,.2724-1.0774,.5986-.3751,.3751-.4105,.5958-.7582,1.1173-.2569,.3853 .0488,.5564 .3591,.4789 .3285-.0821 .6327-.1582 .9577-.2394 .0532-.0133 .1064-.0266 .1596-.0399 .4001-.1 .7178-.4189 1.1173-.5188 .4973-.1243 1.5428,.6464 1.9952,.9178 .3567,.214-.0691,.6331-.2394,.7183-.3169,.1584-.633,.1995-.9976,.1995-.236,0-.4925-.0745-.7183-.1197-.3051-.061-.5178-.0606-.7582,.1197-.2672,.2004-.2359,.4581-.0798,.7183 .1559,.2599 .4102,.4437 .4788,.7183 .0866,.3465-.1934,.531-.4389,.6784-.2466,.1479-.6722-.0399-.9577-.0399-.3617,0-.7114,.1844-.9976,.399-.1297,.0973-.2431,.6132-.2793,.7582-.0133,.0532-.0266,.1064-.0399,.1596-.0973,.3891 .0274,.5873 .1596,.9178 .0957,.2393 .328,.4566 .4389,.6784 .1384,.2769 .2292,.4594 .0798,.7582-.1273,.2547-.1755,.4628-.2394,.7183-.0447,.179 .2074,.6582 .2793,.838 .1442,.3606 .0101,.4288-.2394,.6784-.2208,.2208-.5516,.2758-.7981,.399-.2292,.1146-.6809-.0206-.9178-.0798-.267-.0668-.5154,.0582-.7183,.1596-.3221,.1611-.3211,.3167-.5587,0-.2519-.3358-.4608-.6861-.5587-1.0774-.0133-.0532-.0266-.1064-.0399-.1596-.0668-.2674-.0399-.5961-.0399-.8779 0-.2876 .0798-.5446 .0798-.838 0-.316-.7546,.2779-.9577,.3591-.0941,.0376-.1862,.0798-.2793,.1197-.3987,.1709-.3591,.5352-.3591,.8779 0,.3415 .1995,.6023 .1995,.9577 0,.3424-.4034,.4389-.6783,.4389-.391,0-.5722-.4525-.838-.7183-.2543-.2542-.688-.5381-.838-.838-.2122-.4244-.2839-.665 .1596-.9976 .2541-.1906 .6084-.226 .7981-.4788 .1992-.2657 .4817-.6377 0-.7582-.3283-.0821-.4556-.1962-.838-.1197-.0665,.0133-.133,.0266-.1995,.0399-.6595,.1319-.6549,.0716-1.2769-.2394-.4476-.2238-.601-.5611-.9178-.8779-.2949-.2949-.4623-.6919-.5587-1.0774-.0887-.3548-.1937-.695-.2793-1.0375-.0701-.2805-.0798-.6256-.0798-.9178 0-.297-.0798-.6135-.0798-.9178 0-.3325 0-.6651 0-.9976 0-.3365 .0399-.6341 .0399-.9577 0-.2772 .0542-.616 .1197-.8779 .0064-.0258 0-.0532 0-.0798 0-.3404 .1971-.6922 .3192-.9976 .1076-.2691 .2746-.5493 .399-.7981 .1303-.2606 .2609-.4809 .4389-.7183 .1922-.2563 .3969-.5162 .5985-.7582 .3473-.4168 .7084-.8067 1.1173-1.1572 .239-.2048 .3566-.5467 .6385-.7582 .3488-.2616 .6524-.5392 .9976-.7981 .2624-.1968 .5019-.4241 .6784-.7183 .1436-.2393 .2246-.464 .4389-.6784 .0527-.0527 .2298-.1349 .2793-.1596z"/>
<path opacity=".189" d="m334.8596-450.9703c-.385,.0925-1.1527,.2244-1.676,.1197-.4009-.0802-.4142-.3041-.7981,.0798-.0266,.0266-.0532,.0532-.0798,.0798-.2423,.2423-.2793,.2786-.2793,.6385 0,.2363 .0035,.4611-.0399,.6784-.0467,.2334-.0115,.5923 .0399,.7981 .0784,.3137 .1279,.5352 .2793,.838 .1209,.2418 .1773,.4322 .399,.5986 .288,.216 .6844,.2738 .9976,.399 .2208,.0883 .5907,.0399 .838,.0399 .3136,0 .3591,.0355 .3591,.399 0,.312-.5857,.75-.7582,1.0375-.1909,.3181-.1178,.5644 0,.9178 .0878,.2635 .1448,.5245 .1995,.7981 .057,.2852 .1314,.4906 .3591,.7183 .2422,.2422 .6889-.0258 .9178,.2793 .115,.1534 .1197,.4072 .1197,.5985 0,.3173 .1025,.4675 .399,.3192 .2699-.135 .4726-.1247 .6784-.399 .1959-.2612 .2941-.5882 .4389-.8779 .1292-.2584 .35-.2793 .6385-.2793 .2666,0 .4808,.0693 .7582,0 .4064-.1016 .4683-.2289 .7582-.5188 .3667-.3667 .3231-.622 .399-1.0774 .0342-.2054-.0338-.4546-.0798-.6385-.0133-.0532-.0266-.1064-.0399-.1596-.0556-.2224-.5438-.2394-.7183-.2394-.3857,0-.9577-.1895-1.3168-.2793-.1834-.0458-.6921-.6522-.838-.7981-.2109-.2109-.2524-.3712-.3192-.6385-.0823-.3293-.0384-.6723-.1197-.9976-.0932-.3729 .0159-.5827-.2793-.8779-.209-.209-.3467-.4967-.399-.7582-.0504-.2523-.2872-.5346-.4788-.6784-.1402-.1051-.1568-.0792-.3591-.1197z"/>
<path opacity=".183" d="m341.0047-448.6559c-.2069,.0069-.4185,.2589-.5986,.4389-.1769,.1769-.1197,.4801-.1197,.7183 0,.2606 .056,.5433 .1197,.7981 .054,.2161 .253,.4924 .399,.6385 .2201,.2201 .5018,.3496 .7981,.399 .3881,.0647 .6019,.1115 .7582-.2793 .1074-.2684 .1596-.453 .1596-.7582 0-.2763-.0124-.4885-.0798-.7582-.0815-.3259-.1864-.4922-.4788-.6385-.2073-.1036-.4183-.3437-.5986-.4788-.1034-.0775-.2359-.0798-.3591-.0798z"/>
</g>
<path opacity=".472" fill="#f3f4f2" d="m328.3552-436.206c.2163-.1482 .8456-.7938 1.2769-1.1173 .0831-.0623 .1596-.133 .2394-.1995 .4301-.3584 .805-.9281 1.1173-1.3966 .4955-.7433 .7131-1.411 .8779-2.2346 .2093-1.0464 .2621-.3475 .0399,.3192-.0347,.104-.0532,.2128-.0798,.3192-.109,.4361-.1521,.899-.3192,1.3168-.2256,.5639-.6512,1.0487-.7981,1.6361-.0784,.3134-.185,.6965-.1197,.9577 .078,.3121 .5328-.3771 .838-.4789 .4153-.1384 .5187-.2289 .5187,.2394 0,.2831-.1427,.6739-.1995,.9577-.0979,.4893 1.288,.077 1.5962,0 1.0073-.2518 1.6982-.5971 2.5139-1.2769 .8983-.7486 1.6454-1.5656 2.474-2.3942 .6667-.6667 .9804-1.0848 .5587,.0399-.0399,.1064-.0798,.2128-.1197,.3192-.0399,.1064-.0798,.2128-.1197,.3192-.2209,.589-.6239,1.2406-1.1572,1.5962-.831,.554-1.3696,1.5826-2.2745,2.0351-.3663,.1831-.7492,.2549-1.1173,.4389-.3694,.1847 .7185,.3148 .9178,.3591 2.0033,.4452-1.6212,.6385-2.075,.6385-.7485,0-1.1228-.1563-1.7159,.1995-.2027,.1216 .9432,.5877 .9976,.5986 .4676,.0935 .8847,.399 1.3966,.399 .8499,0-1.7729,.2651-2.5139,.0798-.6212-.1553-1.2098-.2825-1.8356-.4389-.3175-.0794-.6362-.0305-.9178,.0399-.056,.014 .0399,.8234 .0399,.9178 0,.591-.1547,1.0523-.4389,.1995-.1531-.4593-.4389-.9443-.4389-1.4365 0-.3117-.4116,.4689-.5985,.7183-.2633,.3511-.782,.8539-.8779,.8779-.0131,.0033 .2582-.5539 .3591-.9577 .0759-.3034 .5659-1.1155 .2394-1.1971-.3049-.0762-.7251-.0173-1.0375-.0798-.4634-.0927-.9603-.1809-1.3966-.399-.8445-.4223-2.1628-.8101-3.0726-1.0375-.0838-.0209-1.4555-1.4954-.1596-.1995 .8554,.8554 2.1906,1.4365 3.3918,1.4365 .3849,0 .9565-.1494 1.3168-.2394 .217-.0543 .5168-.3823 .7582-.4789 .262-.1048-.4179-.3818-.5985-.5985-.0665-.0798-.133-.1596-.1995-.2394-.7153-.8584-.9664-2.0438-1.7957-2.8731-.1334-.1334-2.0778-2.4032-1.1572-1.636 .9519,.7932 1.8316,1.4984 2.6336,2.4341 .4112,.4798 .7649,1.1057 1.1572,1.5962 .3948,.4935 .3115-.1029 .1995-.4389-.2401-.7204-.1197-1.7215-.1197-2.474 0-.9981 .5155,1.0246 .5587,1.1971 .124,.4961 .3805,1.1421 .7582,.6385 .3903-.5203 .4389-.6187 .4389,.0399 0,.0532 0,.1064 0,.1596 0,.2477-.0131,.5328 .0399,.7981z"/>
<path opacity=".117" fill="#787974" d="m340.047-444.9848c.08,.0851 .1596,.3773 .1596,.6385 0,.1063-.6598,.6199-.7582,.7183-.192,.192-.2307,.515-.2793,.7582-.0627,.3133-.1413,.5307-.0798,.838 .0521,.2605 .1602,.5199 .2793,.7582 .1434,.2867 .3512,.431 .5986,.6784 .2755,.2755 .6156,.2736 .9577,.3591 .4348,.1087-.2584,.523-.3591,.5986-.2679,.201-.5291,.2601-.6784,.5587-.1729,.3458 .1848,.4729 .399,.5587 .2419,.0968 .6067-.3301 .7183-.4788 .1506-.2009 .399-.4271 .399-.6784 0-.247 .1197-.5083 .1197-.7981 0-.2703 .0614-.5648 .1197-.7981 .0889-.3554 .2173-.4966 .4389-.7183 .1786-.1786 .1742-.6202 .1197-.838-.0624-.2497-.219-.477-.2793-.7183-.0615-.2461-.362-.3898-.5587-.4389-.2363-.0591-.5675-.4877-.7183-.6385-.2076-.2076-.2995-.3591-.5986-.3591z"/>
<path fill="none" stroke="#000" fill-opacity=".75" stroke-width="1.001" d="m322.6888-446.0223c-.0094-.0094 .0266,0 0,0z"/>
<g fill="#938f8b">
<path opacity=".2" d="m327.5971-455.679c.1719-.0426 .5717-.1728 .838-.2394 .3403-.0851 .6974,.1197 1.0375,.1197 .0345,0 .2553,.4389 .6385,.4389 .0532,0 .1064,0 .1596,0 .2416,0 .5117,.1925 .6784,.3591 .1609,.1609 .0136,.5451-.0798,.6385-.2542,.2542-.4816,.0771-.6784-.1197-.2105-.2105-.321-.2897-.5986-.3591-.2756-.0689-.5702-.0271-.838,.0399-.327,.0818-.5419,.1596-.9178,.1596-.1256,0-.5121-.5454-.5587-.6385-.0821-.1642 .2188-.3739 .3192-.399z"/>
<path opacity=".289" d="m332.4254-455.0006c.1975,.0512 .6404,.0394 .9577-.0399 .3516-.0879 .9083-.1321 1.2769-.0399 .2234,.0558 1.5873,.3237 .9577,.6385-.3115,.1558-.6412,.1932-.9178,.3591-.333,.1998 .4023,.2793 .5587,.2793 .4242,0 .1804,.5106 .0798,.6784-.1569,.2615-.0504,.6659 0,.9178 .0571,.2853 .5475,.2394 .7981,.2394 .3432,0 .6319,.0444 .838,.3192 .1823,.243 .4347,.4874 .3192,.7183-.1189,.2378-.7214,.2793-.9178,.2793-.1516,0-.7504-.7629-.838-.838-.2305-.1975-.4999-.0147-.7183,.0399-.3888,.0972-.6761-.3971-.9178-.5986-.2615-.2179-.4251-.5311-.5587-.7981-.1689-.3378 .1039-.4789-.399-.4789-.3123,0-.4831-.0631-.7183-.2394-.3193-.2395-.5586-.1469-.5586-.5986 0-.3987 .0217-.5158 .3591-.7183 .1083-.065 .254-.0327 .399-.1197z"/>
</g>
<path opacity=".178" fill="url(#radialGradient7778)" d="m323.8767-456.1898c.0486,.1756-.1259,.394-.2793,.5986-.2014,.2686-.3104,.4477-.0798,.6784 .1433,.1433 .5789,.0158 .7183-.0399 .3214-.1286 .6736-.2295 .9976-.3591 .2457-.0983 .4292-.1372 .6784-.1995 .2867-.0717 .5715,.0571 .6784,.1995 .0681,.0908-.4618,.4903-.5188,.5188-.242,.121-.4729,.218-.7183,.2793-.302,.0755-.5715,.1782-.8779,.2394-.3077,.0615-.5236,.1546-.7981,.3192-.3401,.204-.6261,.5063-.9178,.7981-.2726,.2726-.3671,.5669-.2793,.9178 .0844,.3375 .21,.457 .5187,.5187 .3433,.0687 .5106-.0955 .6784-.3192 .2182-.291 .3017-.6608 .5587-.9178 .2149-.2149 .3622-.4213 .5986-.5985 .2396-.1797 .4209-.2739 .7183-.1995 .2473,.0618 .4487,.3052 .7183,.3591 .2273,.0455 .5616-.2608 .7582-.3591 .0429-.0215 .0798-.0532 .1197-.0798 .2074-.1382 .5504-.0798 .7981-.0798 .269,0 .4962,.1284 .7183,.2394 .2688,.1344 .5006,.1261 .7582,.3192 .2726,.2044 .4189,.359 .5587,.6385 .132,.264 .1903,.4298 .399,.6385 .2207,.2207 .5603,.3608 .7981,.5986 .1429,.1429 .2326,.5314 .2793,.7183 .0733,.2931 .1394,.5991 0,.8779-.1509,.3018-.3319,.584-.4788,.8779-.1446,.2892-.5492,.5316-.7981,.7183-.343,.2573-.7512,.2724-1.0774,.5985-.3751,.3751-.4105,.5959-.7582,1.1173-.2569,.3853 .0488,.5564 .3591,.4788 .3285-.0821 .6327-.1582 .9577-.2394 .0532-.0133 .1064-.0266 .1596-.0399 .4001-.1 .7178-.4189 1.1173-.5188 .4973-.1243 1.5428,.6464 1.9952,.9178 .3567,.214-.0691,.6331-.2394,.7183-.3169,.1584-.633,.1995-.9976,.1995-.236,0-.4925-.0746-.7183-.1197-.3052-.061-.5178-.0606-.7582,.1197-.2672,.2004-.2359,.4581-.0798,.7183 .1559,.2599 .4102,.4437 .4788,.7183 .0866,.3465-.1934,.531-.4389,.6784-.2465,.1479-.6722-.0399-.9577-.0399-.3617,0-.7114,.1844-.9976,.399-.1297,.0972-.2431,.6132-.2793,.7582-.0133,.0532-.0266,.1064-.0399,.1596-.0973,.3891 .0274,.5873 .1596,.9178 .0957,.2393 .328,.4566 .4389,.6784 .1384,.2769 .2292,.4594 .0798,.7582-.1273,.2547-.1755,.4628-.2394,.7183-.0447,.179 .2074,.6582 .2793,.838 .1442,.3606 .0101,.4288-.2394,.6784-.2208,.2208-.5516,.2758-.7981,.399-.2292,.1146-.6809-.0206-.9178-.0798-.267-.0668-.5154,.0582-.7183,.1596-.3221,.1611-.3211,.3167-.5587,0-.2519-.3359-.4608-.6861-.5587-1.0774-.0133-.0532-.0266-.1064-.0399-.1596-.0669-.2674-.0399-.5961-.0399-.8779 0-.2876 .0798-.5446 .0798-.838 0-.316-.7546,.2779-.9577,.3591-.094,.0376-.1862,.0798-.2793,.1197-.3987,.1709-.3591,.5352-.3591,.8779 0,.3415 .1995,.6023 .1995,.9577 0,.3424-.4034,.4389-.6784,.4389-.391,0-.5722-.4525-.838-.7183-.2543-.2543-.688-.5381-.838-.838-.2122-.4243-.2839-.6649 .1596-.9976 .2541-.1906 .6084-.226 .7981-.4789 .1992-.2656 .4818-.6377 0-.7582-.3283-.0821-.4556-.1962-.838-.1197-.0665,.0133-.133,.0266-.1995,.0399-.6595,.1319-.6549,.0716-1.2769-.2394-.4476-.2238-.601-.5611-.9178-.8779-.2949-.2949-.4623-.6919-.5587-1.0774-.0887-.3548-.1937-.695-.2793-1.0375-.0701-.2806-.0798-.6256-.0798-.9178 0-.297-.0798-.6134-.0798-.9178 0-.3325 0-.6651 0-.9976 0-.3365 .0399-.6341 .0399-.9577 0-.2772 .0542-.616 .1197-.8779 .0065-.0258 0-.0532 0-.0798 0-.3404 .1971-.6922 .3192-.9976 .1076-.2691 .2746-.5493 .399-.7981 .1303-.2606 .2609-.4809 .4389-.7183 .1922-.2563 .3969-.5162 .5986-.7582 .3473-.4168 .7084-.8067 1.1173-1.1572 .239-.2048 .3566-.5468 .6385-.7582 .3488-.2616 .6524-.5392 .9976-.7981 .2624-.1968 .5019-.4241 .6784-.7183 .1436-.2393 .2246-.464 .4389-.6784 .0527-.0527 .2298-.1349 .2793-.1596z"/>
</g>
<g fill="#fff">
<path opacity=".617" d="m-824.7311,649.3685a31.8646,31.8646 0 1,1 -63.7292,0 31.8646,31.8646 0 1,1 63.7292,0z" transform="matrix(.02129 0 0 .02129 345.1547 -457.7716)"/>
<path opacity=".544" d="m-824.7311,649.3685a31.8646,31.8646 0 1,1 -63.7292,0 31.8646,31.8646 0 1,1 63.7292,0z" transform="matrix(.01127 0 0 .01127 330.388 -456.653)"/>
</g>
<g fill="#c2c3be">
<path opacity=".544" d="m-824.7311,649.3685a31.8646,31.8646 0 1,1 -63.7292,0 31.8646,31.8646 0 1,1 63.7292,0z" transform="matrix(.02129 0 0 .02129 354.9312 -458.5298)"/>
<path opacity=".567" d="m-824.7311,649.3685a31.8646,31.8646 0 1,1 -63.7292,0 31.8646,31.8646 0 1,1 63.7292,0z" transform="matrix(.02129 0 0 .02129 349.8235 -448.3144)"/>
</g>
<g fill="#fff">
<path opacity=".617" d="m-824.7311,649.3685a31.8646,31.8646 0 1,1 -63.7292,0 31.8646,31.8646 0 1,1 63.7292,0z" transform="matrix(.01378 0 0 .01378 347.8565 -453.491)"/>
<path opacity=".617" d="m-824.7311,649.3685a31.8646,31.8646 0 1,1 -63.7292,0 31.8646,31.8646 0 1,1 63.7292,0z" transform="matrix(.01127 0 0 .01127 337.4909 -441.33)"/>
<path opacity=".617" d="m-824.7311,649.3685a31.8646,31.8646 0 1,1 -63.7292,0 31.8646,31.8646 0 1,1 63.7292,0z" transform="matrix(.01378 0 0 .01378 346.1806 -447.5852)"/>
<path opacity=".617" d="m-824.7311,649.3685a31.8646,31.8646 0 1,1 -63.7292,0 31.8646,31.8646 0 1,1 63.7292,0z" transform="matrix(.01378 0 0 .01378 351.368 -458.9977)"/>
<path opacity=".617" d="m-824.7311,649.3685a31.8646,31.8646 0 1,1 -63.7292,0 31.8646,31.8646 0 1,1 63.7292,0z" transform="matrix(.01378 0 0 .01378 348.3353 -458.1996)"/>
<path opacity=".617" d="m-824.7311,649.3685a31.8646,31.8646 0 1,1 -63.7292,0 31.8646,31.8646 0 1,1 63.7292,0z" transform="matrix(.01378 0 0 .01378 349.5325 -462.6689)"/>
<path opacity=".617" d="m-824.7311,649.3685a31.8646,31.8646 0 1,1 -63.7292,0 31.8646,31.8646 0 1,1 63.7292,0z" transform="matrix(.01378 0 0 .01378 340.6738 -449.4208)"/>
<path fill-rule="evenodd" d="m328.3136-435.943c.2005-.1357 .7838-.7266 1.1836-1.0227 .077-.0571 .1479-.1217 .2219-.1826 .3987-.3281 .7461-.8495 1.0356-1.2784 .4593-.6804 .661-1.2915 .8137-2.0454 .194-.9578 .243-.3181 .037,.2922-.0322,.0953-.0493,.1948-.074,.2922-.1011,.3992-.141,.8229-.2959,1.2053-.2091,.5162-.6036,.9599-.7397,1.4975-.0726,.2869-.1715,.6375-.111,.8766 .0723,.2857 .4938-.3452 .7767-.4383 .385-.1267 .4808-.2096 .4808,.2192 0,.2591-.1323,.6168-.1849,.8766-.0907,.4479 1.1939,.0705 1.4794,0 .9337-.2305 1.574-.5466 2.3302-1.1688 .8326-.6852 1.5251-1.4331 2.2931-2.1915 .618-.6102 .9087-.9929 .5178,.0365-.037,.0974-.074,.1948-.111,.2922-.037,.0974-.074,.1948-.111,.2922-.2047,.5391-.5783,1.1356-1.0726,1.461-.7702,.5071-1.2694,1.4486-2.1082,1.8628-.3395,.1676-.6944,.2333-1.0356,.4018-.3424,.1691 .666,.2882 .8507,.3287 1.8569,.4075-1.5026,.5844-1.9233,.5844-.6938,0-1.0407-.1431-1.5904,.1826-.1879,.1113 .8743,.5379 .9247,.5479 .4334,.0856 .82,.3653 1.2945,.3653 .7878,0-1.6433,.2426-2.3302,.0731-.5758-.1422-1.1214-.2586-1.7014-.4018-.2943-.0727-.5897-.0279-.8507,.0365-.0519,.0128 .037,.7537 .037,.8401 0,.541-.1434,.9632-.4069,.1826-.1419-.4205-.4069-.8644-.4069-1.3149 0-.2853-.3815,.4292-.5548,.6575-.2441,.3214-.7248,.7816-.8137,.8036-.0121,.003 .2393-.507 .3329-.8766 .0703-.2777 .5246-1.021 .2219-1.0958-.2826-.0698-.672-.0159-.9616-.0731-.4295-.0848-.8901-.1655-1.2945-.3653-.7828-.3865-2.0047-.7415-2.848-.9497-.0777-.0192-1.3491-1.3688-.1479-.1826 .7929,.783 2.0304,1.3149 3.1438,1.3149 .3568,0 .8866-.1367 1.2206-.2192 .2011-.0496 .479-.3499 .7027-.4383 .2428-.0959-.3874-.3495-.5548-.5479-.0616-.0731-.1233-.1461-.1849-.2192-.663-.7857-.8958-1.8708-1.6644-2.6298-.1236-.1221-1.9259-2.1997-1.0726-1.4976 .8823,.7261 1.6977,1.3716 2.4411,2.2281 .3812,.4392 .7089,1.0121 1.0726,1.461 .3659,.4517 .2887-.0942 .1849-.4018-.2226-.6594-.111-1.5758-.111-2.2646 0-.9136 .4778,.9378 .5178,1.0958 .1149,.454 .3527,1.0454 .7027,.5844 .3617-.4763 .4069-.5663 .4069,.0365 0,.0487 0,.0974 0,.1461 0,.2267-.0122,.4877 .037,.7305z"/>
</g>
<g opacity=".317" fill="#a3a4a0" transform="translate(461.6971 -517.2066)">
<path opacity="1" d="m-125.6882,68.6829a1.7678,1.591 0 1,1 -3.5355,0 1.7678,1.591 0 1,1 3.5355,0z" transform="matrix(1 0 0 1.05556 -.17678 -4.08088)"/>
<path opacity="1" d="m-125.6882,68.6829a1.7678,1.591 0 1,1 -3.5355,0 1.7678,1.591 0 1,1 3.5355,0z" transform="matrix(1 0 0 1.05556 1.76777 -.10344)"/>
<path opacity="1" d="m-125.6882,68.6829a1.7678,1.591 0 1,1 -3.5355,0 1.7678,1.591 0 1,1 3.5355,0z" transform="matrix(.65 0 0 .68611 -40.27856 25.21363)"/>
<path opacity="1" d="m-125.6882,68.6829a1.7678,1.591 0 1,1 -3.5355,0 1.7678,1.591 0 1,1 3.5355,0z" transform="matrix(1.55 0 0 1.63611 63.02973 -45.53725)"/>
<path opacity="1" d="m-125.6882,68.6829a1.7678,1.591 0 1,1 -3.5355,0 1.7678,1.591 0 1,1 3.5355,0z" transform="matrix(1.8 0 0 1.9 89.14849 -57.50565)"/>
<path opacity="1" d="m-125.6882,68.6829a1.7678,1.591 0 1,1 -3.5355,0 1.7678,1.591 0 1,1 3.5355,0z" transform="matrix(1.4 0 0 1.47778 42.32034 -25.70873)"/>
<path opacity="1" d="m-125.6882,68.6829a1.7678,1.591 0 1,1 -3.5355,0 1.7678,1.591 0 1,1 3.5355,0z" transform="matrix(1.4 0 0 1.47778 40.72936 -32.28484)"/>
</g>
<path fill="#fff" d="m-161.8391,69.5226a.6629,.6629 0 1,1 -1.3258,0 .6629,.6629 0 1,1 1.3258,0z" transform="translate(490.9094 -504.2577)"/>
</g>
<g fill="none" transform="matrix(.9987 0 0 .9987 -342.5411 469.4117)">
<path stroke="#888a85" stroke-width=".722" d="m-46.5,.25a9.75,9.75 0 1,1 -19.5,0 9.75,9.75 0 1,1 19.5,0z" transform="matrix(1.38649 0 0 1.38649 445.0082 -446.3649)"/>
<path stroke="#fff" stroke-linecap="square" stroke-width=".761" d="m-22.5-17.5a9.5,9.5 0 1,1 -19,0 9.5,9.5 0 1,1 19,0z" transform="matrix(.77807 -1.0613 1.0613 .77807 410.4716 -466.346)"/>
</g>
</svg>
